<?xml version="1.0" encoding="UTF-8" standalone="no"?>
<!-- Created with Inkscape (http://www.inkscape.org/) -->

<svg
   xmlns:dc="http://purl.org/dc/elements/1.1/"
   xmlns:cc="http://creativecommons.org/ns#"
   xmlns:rdf="http://www.w3.org/1999/02/22-rdf-syntax-ns#"
   xmlns:svg="http://www.w3.org/2000/svg"
   xmlns="http://www.w3.org/2000/svg"
   xmlns:sodipodi="http://sodipodi.sourceforge.net/DTD/sodipodi-0.dtd"
   xmlns:inkscape="http://www.inkscape.org/namespaces/inkscape"
   width="740.80267"
   height="800"
   id="svg4657"
   version="1.1"
   inkscape:version="0.48.4 r9939"
   sodipodi:docname="Новый документ 42">
  <defs
     id="defs4659" />
  <sodipodi:namedview
     id="base"
     pagecolor="#ffffff"
     bordercolor="#666666"
     borderopacity="1.0"
     inkscape:pageopacity="0.0"
     inkscape:pageshadow="2"
     inkscape:zoom="0.35"
     inkscape:cx="-294.90013"
     inkscape:cy="727.85502"
     inkscape:document-units="px"
     inkscape:current-layer="layer1"
     showgrid="false"
     fit-margin-top="0"
     fit-margin-left="0"
     fit-margin-right="0"
     fit-margin-bottom="0"
     inkscape:window-width="1920"
     inkscape:window-height="1018"
     inkscape:window-x="-8"
     inkscape:window-y="-8"
     inkscape:window-maximized="1" />
  <metadata
     id="metadata4662">
    <rdf:RDF>
      <cc:Work
         rdf:about="">
        <dc:format>image/svg+xml</dc:format>
        <dc:type
           rdf:resource="http://purl.org/dc/dcmitype/StillImage" />
        <dc:title></dc:title>
      </cc:Work>
    </rdf:RDF>
  </metadata>
  <g
     inkscape:label="Layer 1"
     inkscape:groupmode="layer"
     id="layer1"
     transform="translate(-75.61442,-460.2172)">
    <path
       id="path4295"
       d="M 514.36079,768.38007 333.5827,829.43121 c -38.41271,18.64266 -126.77396,58.69238 -190.16364,88.03944 -9.20107,-6.95338 -23.17258,11.73188 -28.76015,31.68752 C 84.567069,1056.629 77.509689,1157.574 75.61442,1260.2172 l 735.97739,0 c 2.46976,-44.7932 5.9773,-88.5319 4.45528,-137.3169 0.69887,-89.1129 -8.27508,-167.55044 -35.20555,-210.12881 -6.81357,-10.77261 -10.94624,-13.13785 -19.96517,-15.26601 0,0 -36.90906,-17.12569 -72.29838,-29.99275 -17.4819,-6.35615 -33.64276,-8.22647 -46.65825,-13.25021 -22.34372,-8.6243 -66.50785,-27.18093 -66.50785,-27.18093 -43.29865,-16.44255 -39.27671,-48.02608 -61.0511,-58.70152 z"
       style="fill:#666666;fill-opacity:1;stroke:none"
       inkscape:connector-curvature="0" />
    <path
       sodipodi:nodetypes="ccc"
       inkscape:connector-curvature="0"
       id="path4297"
       d="m 298.36984,847.32767 c -21.44447,29.84553 -42.35474,60.05466 -63.09624,90.38906 23.14309,-28.62211 42.70661,-59.8046 63.09624,-90.38906 z"
       style="fill:#000000;stroke:none" />
    <path
       sodipodi:nodetypes="csscsc"
       inkscape:connector-curvature="0"
       id="path4299"
       d="m 252.29493,955.61844 -0.58695,5.86946 c -0.24179,2.41782 2.32883,5.02554 4.69554,5.57593 l 12.61926,2.93469 c 3.03436,-2.15213 1.42601,-5.30309 -0.88043,-6.45633 z"
       style="fill:#000000;stroke:none" />
    <path
       sodipodi:nodetypes="csscccsssc"
       inkscape:connector-curvature="0"
       id="path4301"
       d="m 272.54442,979.09613 -32.28179,19.66254 c -1.5337,0.93417 -3.10031,2.95943 -2.64125,4.69553 l 61.92237,234.1898 4.98898,20.8365 -2.93468,-21.4234 -60.16156,-230.6682 c -0.63087,-2.4188 1.64287,-5.2194 3.81512,-6.45632 l 21.12992,-12.03231 c 3.11296,-1.77265 4.10859,-5.86941 6.16289,-8.80414 z"
       style="fill:#000000;stroke:none" />
    <path
       id="path4303"
       d="m 139.75983,919.48645 c -3.04357,10.09908 -8.57883,19.75469 -9.12876,30.28801 -1.27116,24.34715 2.12118,48.72923 3.73623,73.05594 0.59911,9.0244 2.71808,17.933 2.90169,26.9755 0.3708,18.2623 -1.62909,36.5234 -1.24539,54.7855 0.30888,14.7029 1.81213,29.3595 3.32537,43.9876 3.85337,37.2492 8.35322,74.4353 12.63392,111.6382 l 12.68528,0 c -1.42716,-5.662 -2.87757,-11.3133 -4.14709,-17.0121 -4.58437,-20.5788 -9.67335,-41.0634 -13.28875,-61.8343 -3.44579,-19.7965 -7.19731,-39.6849 -7.88336,-59.7673 -0.84161,-24.6356 4.20169,-49.2432 3.32537,-73.8776 -0.3782,-10.6322 -6.08236,-20.5288 -7.0616,-31.1226 -2.07661,-22.46483 -3.04328,-45.11053 -2.08002,-67.65056 0.42869,-10.03002 4.15194,-19.64392 6.22711,-29.46629 z"
       style="fill:#000000;stroke:none"
       inkscape:connector-curvature="0" />
    <path
       sodipodi:nodetypes="cssccssccc"
       inkscape:connector-curvature="0"
       id="path4305"
       d="m 602.10801,880.0555 26.97702,51.04877 c 1.43517,2.71583 1.5023,7.75695 -1.24511,9.13065 l -41.50304,20.75152 18.67635,14.94111 31.12732,-14.94111 c 5.64693,-2.71052 3.89396,-12.68249 2.07513,-18.67635 -0.99786,-3.28831 -6.64048,-7.88558 -6.64048,-7.88558 l -1.66011,-3.73529 z"
       style="fill:#000000;stroke:none" />
    <path
       id="path4307"
       d="m 629.08038,1005.8054 -97.51486,254.4118 57.17366,0 c 12.23149,-48.4109 7.96903,-97.0629 6.72782,-147.3316 l 21.17207,-1.6563 25.73007,-86.7426 c 1.22982,-4.1457 2.19859,-10.9312 -1.66912,-12.8651 l -11.61964,-5.8162 z"
       style="fill:#000000;stroke:none"
       inkscape:connector-curvature="0" />
    <path
       id="path4309"
       d="m 734.91519,978.41908 c -5.94879,22.55002 -12.25309,45.00982 -17.8467,67.65052 -3.12397,12.6447 -5.52737,25.4567 -8.29422,38.1843 0,9.4073 0.39492,18.8218 0,28.2208 -0.98902,23.5384 -1.8243,47.1093 -4.15995,70.5523 -1.40473,14.0995 -6.7973,27.7535 -7.04878,41.9205 -0.17051,9.6031 5.28344,18.631 5.8162,28.2209 0.13057,2.3503 0.17749,4.6973 0.19261,7.0488 l 38.49234,0 c -3.86483,-9.1026 -7.61359,-18.2422 -10.05319,-27.7972 -5.97537,-23.4036 -10.87795,-47.284 -12.45417,-71.3868 -1.76123,-26.9322 1.66077,-53.9623 2.49083,-80.9393 0.41505,-13.281 -0.42253,-26.6582 1.24544,-39.8405 2.63283,-20.8081 7.74597,-41.22114 11.61959,-61.83432 z"
       style="fill:#000000;stroke:none"
       inkscape:connector-curvature="0" />
    <path
       id="path4311"
       d="m 514.502,768.4571 -13.66107,156.42188 25.3192,-34.85887 c 13.46279,-18.53891 22.69188,-17.7667 33.61347,-16.1904 10.25969,1.48073 17.05078,3.93767 34.44796,0.83454 l 4.57081,0 2.49084,4.55799 c 7.33219,-1.79846 14.71295,-3.39617 21.99379,-5.39253 9.87849,-2.70859 19.46117,-6.52327 29.46633,-8.71796 5.86954,-1.28751 11.81336,-2.19423 17.76967,-3.01722 -10.51307,-2.66044 -20.2066,-4.59493 -28.59326,-7.83201 -22.34372,-8.6243 -66.50785,-27.18093 -66.50785,-27.18093 C 532.20987,810.67577 536.1132,779.20165 514.502,768.4571 z"
       style="fill:#000000;stroke:none"
       inkscape:connector-curvature="0" />
    <path
       inkscape:connector-curvature="0"
       id="path4313"
       d="m 513.19243,761.09183 -192.5133,78.06327 -9.98897,56.35196 11.74798,66.32805 14.67536,-14.67536 c 7.77453,104.16505 9.67134,208.01645 7.5624,312.22735 l 136.85464,0 c 0.90319,-116.5807 17.51777,-230.874 36.36105,-345.6867 1.36956,-9.97801 1.73571,-20.14053 4.10859,-29.92855 2.3472,-9.68219 8.71461,-18.29994 9.9762,-28.18238 1.14638,-8.9799 -2.53373,-17.94469 -2.94023,-26.98832 -0.37779,-8.40663 2.51408,-17.04984 0.59065,-25.24216 -3.45467,-14.71423 -10.95626,-28.18056 -16.43437,-42.26716 z"
       style="fill:#ffffff;fill-opacity:1;stroke:none" />
    <path
       id="path4315"
       d="m 513.19243,761.92189 -191.13947,77.51116 -1.33529,4.93031 c 1.84936,5.26939 2.84134,10.05447 12.53121,19.73411 2.69203,2.68923 6.86521,4.97768 10.29716,9.32138 4.7988,6.07365 7.20466,13.87866 11.69663,20.02939 4.56152,6.24576 10.31553,11.42748 19.0151,13.99489 l -34.85882,39.85336 c 5.11861,-1.52179 10.09247,-3.66853 15.35587,-4.57081 4.50174,-0.77172 9.41011,1.19289 13.68671,-0.41086 3.94823,-1.48058 6.14238,-5.82693 9.55247,-8.30708 2.70613,-1.96798 5.81272,-3.32156 8.71795,-4.98167 0.415,-1.66008 0.83042,-3.32155 1.24539,-4.98167 2.55431,7.59687 8.23449,9.78227 14.11047,13.69961 13.03254,107.68019 18.04515,216.20459 44.48834,322.47319 l 34.97439,0 c 0.0429,-5.4775 0.12067,-10.9523 0.23115,-16.4216 -3.76848,-13.0938 -12.97149,-24.5115 -15.36873,-37.9402 -2.27127,-12.7231 -5.13056,-20.6665 -8.29422,-28.6318 -6.35549,-16.0016 -13.6996,-49.8038 -13.6996,-49.8038 l -2.90165,-49.393 c -0.87896,-14.9405 -2.70182,-20.4459 -5.81625,-26.9755 -4.69962,-9.853 -3.62066,-16.7961 -1.24544,-23.6629 2.49215,-7.2048 1.77836,-12.2417 1.19408,-17.4744 -1.44754,-12.96439 0.86305,-27.36944 1.2968,-38.55657 1.94932,-11.58734 0.67508,-16.01332 -0.83458,-19.91381 2.35923,-3.8786 3.32208,-6.8252 4.57081,-9.96334 1.09896,2.71525 7.79067,-0.78749 12.86503,-2.49088 L 427.3742,895.00182 c 23.68805,1.41418 43.00048,19.82039 62.68167,31.95713 3.15758,0.96425 5.00254,3.22816 12.44135,-0.83454 4.50462,-2.46026 9.07243,-1.96136 13.64822,-0.88593 0.5812,-3.56885 1.1603,-7.13827 1.74615,-10.70802 1.3696,-9.97801 1.73571,-20.14053 4.10859,-29.92856 2.3472,-9.68218 8.71461,-18.29993 9.9762,-28.18237 1.14638,-8.9799 -2.53373,-17.94469 -2.94023,-26.98832 -0.37775,-8.40663 2.51408,-17.04984 0.59065,-25.24217 -3.45471,-14.71422 -10.95631,-28.18055 -16.43437,-42.26715 z"
       style="fill:#808080;fill-opacity:1;stroke:none"
       inkscape:connector-curvature="0"
       sodipodi:nodetypes="cccsscccsscccccccssccssscccccccccsscsc" />
    <path
       id="path4317"
       d="m 531.36009,844.47893 c -19.86784,35.56133 -39.11393,76.12012 -58.53459,115.25887 -0.65076,1.31142 -2.3193,1.68953 -4.35256,1.04001 1.6339,1.45041 3.54764,1.30858 4.35256,0 22.85269,-37.15495 40.26873,-76.08215 58.6373,-115.66977 -0.0345,-0.21011 -0.0668,-0.41895 -0.10271,-0.62911 z"
       style="fill:#534b51;fill-opacity:1;stroke:none"
       inkscape:connector-curvature="0" />
    <path
       id="path4319"
       d="m 415.75456,881.66171 c -4.84538,4.93697 -13.6941,5.86145 -23.17505,6.16289 l -7.34411,7.92186 8.80784,2.94024 2.05429,27.00113 c -2.4456,7.43459 -5.78034,14.63329 -7.34411,22.30198 -3.53836,17.35141 -7.10589,34.8361 -7.9219,52.52579 -1.92927,41.8242 -2.12389,83.7787 -0.29528,125.6074 1.30645,29.8845 5.65457,59.5815 9.69369,89.2206 2.04969,15.0409 4.8981,29.9505 7.70361,44.8736 l 68.8446,0 c -2.08034,-3.9431 -4.30745,-7.8239 -5.82906,-12.0048 -8.58013,-23.5753 -16.03941,-47.5515 -24.06094,-71.3226 -8.02154,-23.7711 -8.8078,-26.405 -8.8078,-27.5789 0,-1.1739 -1.75531,-13.7895 -1.16836,-28.1696 0.58691,-14.38 1.70831,-28.7482 1.75897,-43.1402 0.0472,-13.4107 -0.77463,-26.8198 -1.46368,-40.2129 -0.87629,-17.0327 -2.29318,-34.0328 -3.23552,-51.06204 -0.4273,-7.72185 -0.93976,-15.45451 -0.87308,-23.18791 0.0312,-3.64042 1.54393,-7.22809 1.16836,-10.84924 -1.00541,-9.69508 -3.51613,-19.17344 -5.27695,-28.76015 l 7.62657,-22.89258 3.51799,-1.18122 -14.38008,-18.19335 z"
       style="fill:#4d4d4d;fill-opacity:1;stroke:none"
       inkscape:connector-curvature="0" />
    <path
       id="path4321"
       d="m 400.3987,1056.8547 c 2.35184,27.2537 4.99522,54.4842 7.06164,81.761 1.39244,18.3803 1.30916,36.8854 3.31255,55.2092 2.42683,22.1965 5.64562,44.2925 8.85916,66.3923 l 5.17428,0 c -1.87849,-11.3263 -3.75279,-22.6512 -5.31554,-34.0243 -2.5788,-18.7681 -4.87509,-37.5795 -6.63792,-56.4418 -2.38837,-25.5553 -2.98958,-51.2673 -5.80339,-76.7793 -1.34162,-12.164 -4.43728,-24.0813 -6.65078,-36.1171 z"
       style="fill:#000000;stroke:none"
       inkscape:connector-curvature="0" />
    <path
       sodipodi:nodetypes="ccccccccccccccccccccsssccccccccc"
       inkscape:connector-curvature="0"
       id="path4323"
       d="m 233.76842,596.17456 0.41501,7.47057 c -1.01047,1.07255 -0.53021,4.82833 -0.20753,8.30059 -0.79349,1.82984 -1.14231,4.88253 -0.83005,9.75322 -0.007,2.85141 -1.69533,4.78512 1.03758,9.13069 -0.84415,3.34239 -3.38408,5.64842 0.41505,11.82836 -1.04128,2.48639 -4.7386,4.22905 0.62253,8.50811 -0.68667,2.21437 -2.01625,3.22315 -0.62253,9.33822 l 10.37576,21.58157 c -0.54973,3.62493 3.35968,8.98389 8.5554,15.38249 -1.0414,4.29471 -0.92213,6.39963 -0.10222,6.95737 1.33665,-0.0828 2.58616,-0.324 4.72402,-1.48456 l 0.51879,5.81042 c -1.5023,0.55486 -2.906,3.21045 -0.31126,11.7246 -0.22384,3.70653 -0.014,10.0161 0.31126,17.01628 -3.16312,18.90524 2.08787,31.31187 17.01628,40.05044 10.73427,20.78718 20.10334,42.42788 37.35273,59.14184 5.20037,8.51506 12.29891,15.79212 21.99663,21.37409 12.67735,13.35027 30.24142,22.53248 61.63202,19.92147 3.62497,2.00993 6.35094,5.61813 14.73362,-0.83006 l 53.33142,-43.99326 c 16.06969,-13.25593 32.40361,-28.68332 41.29551,-43.78573 3.45602,-5.86982 5.07961,-12.62694 5.18788,-17.84629 0.12864,-6.20176 -0.7672,-9.53309 -2.07513,-12.45093 -1.24717,-16.07881 -2.30102,-31.84837 -0.83006,-43.5782 l 10.99829,-21.16657 6.848,-41.29555 -5.60289,-33.82497 -49.38866,-5.81042 -54.16147,-91.09921 -121.60396,10.79076 z"
       style="fill:#e6e6e6;fill-opacity:1;stroke:none" />
    <path
       inkscape:connector-curvature="0"
       style="fill:#969696;fill-opacity:1;fill-rule:nonzero;stroke:none"
       d="m 376.54318,779.2081 c -0.32101,0.044 -0.7492,0.0696 -0.94831,0.0628 -6.12225,0.43691 -19.34387,2.20262 -24.16547,3.67349 -2.7279,0.8322 -5.22132,2.28898 -7.88336,3.31256 -5.88059,2.26112 -11.67744,4.94863 -17.8467,6.2271 -5.56895,1.15402 -11.49724,2.63505 -17.01212,1.2454 -3.49826,-0.88146 -5.61518,-5.05567 -9.14162,-5.81621 -1.91251,-0.41246 -5.80339,0.83454 -5.80339,0.83454 l 3.73623,14.52133 15.04772,8.51247 c 34.35873,1.45391 42.76536,-21.36066 63.74741,-32.41939 0.005,-0.004 0.008,-0.0103 0.0127,-0.0127 0.0811,-0.0427 0.16253,-0.0861 0.24397,-0.1284 z"
       id="path4408" />
    <path
       sodipodi:nodetypes="ccc"
       inkscape:connector-curvature="0"
       id="path4327"
       d="m 278.17668,634.3574 c 30.53207,-13.22848 40.84254,-34.87867 97.73969,-14.5261 -47.91774,-13.75565 -73.36065,4.55561 -97.73969,14.5261 z"
       style="fill:#000000;fill-opacity:1;stroke:none" />
    <path
       sodipodi:nodetypes="ccc"
       inkscape:connector-curvature="0"
       id="path4329"
       d="m 234.24646,630.74611 c 9.09884,7.13794 19.65259,11.38569 30.08077,16.14093 -13.64049,-4.10834 -19.56886,-7.673 -30.08077,-16.14093 z"
       style="fill:#000000;fill-opacity:1;stroke:none" />
    <path
       sodipodi:nodetypes="csssscssssc"
       inkscape:connector-curvature="0"
       id="path4331"
       d="m 267.99563,649.67501 c 3.15482,0.36682 6.69894,0.38194 9.68453,-0.88043 4.53601,-1.91789 7.83878,-6.03671 12.17906,-8.3639 10.56562,-5.66514 21.02281,-11.86127 32.42851,-15.55399 7.58487,-2.45566 15.82885,-3.334 23.77117,-2.64121 8.06529,0.70352 15.55394,4.49986 23.33093,6.74981 -7.63023,-1.51628 -15.11872,-4.20876 -22.89074,-4.54879 -8.05683,-0.35248 -16.35713,0.12141 -24.0646,2.49449 -11.12677,3.42587 -21.29562,9.43929 -31.69488,14.67355 -4.2934,2.161 -7.79593,5.87615 -12.32578,7.48352 -3.278,1.16314 -6.94545,1.34507 -10.4182,0.58695 z"
       style="fill:#000000;fill-opacity:1;stroke:none" />
    <path
       sodipodi:nodetypes="cssssssssscsssssssssc"
       inkscape:connector-curvature="0"
       id="path4333"
       d="m 236.00728,643.36536 c 1.51627,1.41845 2.78373,3.16193 4.54882,4.25535 3.81204,2.36142 8.04405,3.96632 12.03231,6.01613 4.7674,2.45033 9.10152,5.93536 14.23331,7.48352 3.8424,1.15916 8.22865,1.72084 12.03231,0.44019 6.32012,-2.12788 11.55504,-6.67067 17.16808,-10.27148 4.76223,-3.05503 8.9645,-6.99044 13.93984,-9.68453 6.28019,-3.40064 12.80184,-6.52683 19.66257,-8.51066 5.4434,-1.57396 11.2255,-2.49683 16.87457,-2.0543 5.1984,0.40725 10.21195,2.40904 14.96703,4.54883 2.21585,0.99712 3.71729,3.13034 5.57594,4.69551 -1.90758,-1.2228 -3.59864,-2.87943 -5.7227,-3.66836 -4.79358,-1.7805 -9.71637,-3.6474 -14.82027,-3.96188 -5.41344,-0.33353 -10.92499,0.5674 -16.14089,2.0543 -5.70733,1.62696 -11.00125,4.49291 -16.28766,7.19004 -6.71184,3.42443 -13.18694,7.29933 -19.66253,11.15191 -5.11968,3.04587 -9.40531,7.83423 -15.11375,9.53777 -4.1415,1.23595 -8.78598,0.11048 -12.91273,-1.17386 -5.61846,-1.74862 -10.57256,-5.16919 -15.84742,-7.777 -3.4315,-1.69647 -7.14591,-2.92572 -10.27148,-5.13574 -1.81526,-1.28352 -2.8369,-3.42381 -4.25535,-5.13574 z"
       style="fill:#000000;fill-opacity:1;stroke:none" />
    <path
       sodipodi:nodetypes="ccc"
       inkscape:connector-curvature="0"
       id="path4335"
       d="m 236.98487,652.41121 c 5.36168,4.26238 12.58631,11.42086 19.09144,12.96972 -6.921,-0.62944 -14.67979,-7.57777 -19.09144,-12.96972 z"
       style="fill:#000000;fill-opacity:1;stroke:none" />
    <path
       sodipodi:nodetypes="ccc"
       inkscape:connector-curvature="0"
       id="path4337"
       d="m 310.86033,654.69386 c 19.66804,-14.98248 40.4058,-20.27488 64.74477,7.05552 -17.1415,-24.38803 -40.95149,-28.6942 -64.74477,-7.05552 z"
       style="fill:#000000;fill-opacity:1;stroke:none" />
    <path
       sodipodi:nodetypes="ccc"
       inkscape:connector-curvature="0"
       id="path4339"
       d="m 308.64132,608.14884 c 22.01902,-7.63154 39.34972,-7.99614 63.09628,-1.46734 -24.99507,-4.60388 -44.56348,-2.6915 -63.09628,1.46734 z"
       style="fill:#000000;fill-opacity:1;stroke:none" />
    <path
       sodipodi:nodetypes="csccccccccccsc"
       inkscape:connector-curvature="0"
       id="path4341"
       d="m 278.12035,699.85852 c -11.53076,-10.30382 -24.45656,-19.0301 -36.11872,-34.30581 -2.69824,-3.53429 -5.11487,-2.03437 -7.97527,-6.19317 -1.70351,0.10547 -3.87445,-0.28411 -6.08951,-3.96188 2.49745,5.52109 1.84932,3.48479 4.98902,8.51067 -1.72138,-0.0974 -2.97647,-1.61702 -4.8423,-4.40207 1.06075,2.03901 0.37869,2.33516 3.52164,6.45636 -0.88401,0.87682 0.84304,4.36469 1.76086,7.04332 l -3.6684,-3.52164 c 1.00759,2.70444 2.95321,3.99483 5.13574,5.72266 -2.22222,0.8886 -2.69388,0.16985 -4.98898,-0.14672 2.69856,1.14215 3.90222,1.88428 6.7498,2.49449 3.6608,3.04562 8.41514,4.20128 12.4725,6.60309 9.50124,5.62441 19.21445,10.74113 29.05362,15.7007 z"
       style="fill:#000000;stroke:none" />
    <path
       id="path4343"
       d="m 257.88188,750.30226 c 0.7939,11.97318 6.55201,20.65615 17.80816,27.24511 1.81686,3.51839 3.59625,7.05322 5.37971,10.59248 10.26569,11.6115 19.10064,27.44951 30.36505,40.40543 -2.73209,-5.56928 -5.42125,-10.96728 -9.53962,-15.70251 3.89375,-0.41402 7.891,-0.79349 8.3584,-2.34962 -5.30075,-8.18403 -4.48133,-9.72849 -5.43103,-13.19886 -7.03251,-6.08795 -7.88747,-8.47483 -9.24433,-11.15738 -10.79685,0.42676 -26.44911,-8.61473 -24.35628,-22.89258 -7.82954,-2.46487 -10.66282,-6.21976 -13.34006,-12.94207 z"
       style="fill:#b3b3b3;fill-opacity:1;stroke:none"
       inkscape:connector-curvature="0" />
    <path
       id="path4345"
       d="m 476.11237,613.97401 c -13.79353,22.29873 -29.15559,47.96531 -32.76602,54.63147 -6.70493,12.3796 -15.5919,23.8005 -20.11928,37.1314 -2.89722,8.5308 -3.23014,18.1175 -1.65626,26.98832 1.55814,8.78253 9.04655,15.73604 10.78506,24.48463 2.61894,13.17946 11.08523,30.27832 2.07993,40.25139 -11.22081,12.42677 -40.56397,2.33972 -34.65339,21.17208 -3.4117,3.48856 -13.81527,2.88563 -20.13211,6.2271 -10.82314,5.72525 -15.81767,14.75996 -23.44466,22.19922 1.68428,-10.23076 3.9664,-18.55276 6.4325,-22.40465 8.01521,-12.51933 3.81359,-14.66582 3.9417,-20.33753 3.9804,-2.06913 7.26831,-5.51616 12.23588,-5.61082 4.45922,3.45956 8.8343,6.96411 15.98502,9.34705 L 390.0245,795.5995 c -1.55095,-4.04594 -1.20559,-8.93693 -3.73623,-12.45418 -1.87977,-2.61253 -5.66362,-3.04902 -8.4997,-4.57081 -4.21948,0.96844 -8.6925,1.18122 -12.65956,2.91456 -11.48134,5.01659 -21.38773,13.68219 -33.40803,17.21755 -8.49522,2.4986 -17.85488,5.0122 -26.34636,-0.60343 6.57133,5.67426 18.22597,4.26916 26.96264,1.84887 12.40348,-3.4361 22.59332,-12.37426 34.24258,-17.8467 3.26822,-1.5353 6.91562,-2.06954 10.3742,-3.10713 -21.51182,10.92923 -29.71552,34.30556 -64.54345,32.77885 7.22578,5.93293 10.6588,21.99885 15.98501,32.99714 -3.3199,3.55229 -6.64347,0.92049 -9.96333,-0.56493 4.44973,5.3235 9.90175,9.99744 16.6013,13.85368 12.67735,13.35027 30.2383,22.52484 61.62889,19.91383 3.62493,2.00996 6.3569,5.62647 14.73958,-0.82172 l 53.33463,-44.00045 c 16.06969,-13.25593 32.39946,-28.67983 41.29135,-43.7822 3.45607,-5.86986 5.07888,-12.62735 5.1871,-17.8467 0.12868,-6.20176 -0.772,-9.53633 -2.07993,-12.45417 -1.24716,-16.07882 -2.29272,-31.84694 -0.82172,-43.57677 l 10.99049,-21.15925 6.85617,-41.30422 -5.61078,-33.81886 -44.43698,-5.23845 z"
       style="fill:#b3b3b3;fill-opacity:1;stroke:none"
       inkscape:connector-curvature="0" />
    <path
       sodipodi:nodetypes="cscsc"
       inkscape:connector-curvature="0"
       id="path4347"
       d="m 342.09702,860.53388 c 8.23531,-0.4395 16.39021,0.48017 26.26566,-6.30965 15.12879,-10.40168 20.44514,-17.99954 30.66769,-26.99933 -9.97801,9.29327 -10.64467,15.70752 -29.93402,27.87976 -14.05599,8.86975 -19.73053,5.18558 -26.99933,5.42922 z"
       style="fill:#000000;stroke:none" />
    <path
       sodipodi:nodetypes="cssscccccccccssc"
       inkscape:connector-curvature="0"
       id="path4349"
       d="m 304.38601,755.47128 c 4.65344,-7.06074 10.10127,-12.7267 17.46152,-12.17906 3.76056,0.27979 10.87035,-0.23756 13.79313,9.39105 1.42075,4.68047 -2.85523,13.22429 -14.67356,13.6464 -20.87001,0.74547 -24.59416,13.29286 -24.5048,15.84746 5.84427,2.96123 17.02129,-10.07583 25.53195,-15.11374 -6.35521,6.11272 -7.23593,9.45173 -22.15702,18.34191 7.43207,14.0011 37.81084,0.29918 48.42268,-3.81512 -4.48239,-13.10485 -6.4313,-18.60926 -9.09757,-26.26566 12.50951,8.24414 18.13828,13.56748 26.52351,25.11694 l 11.77441,-1.31019 c -3.92564,-5.95997 -8.73725,-9.95253 -13.64637,-13.82874 -9.24577,-3.72272 -17.27585,-12.13231 -23.62441,-17.31477 -7.31111,-4.43576 -13.60178,-6.63459 -19.36909,-6.89656 -4.56782,-0.20748 -9.17334,-2.49819 -14.23336,1.90754 -3.59892,3.13358 -4.00153,7.89265 -2.20102,12.47254 z"
       style="fill:#b3b3b3;fill-opacity:1;stroke:none" />
    <path
       sodipodi:nodetypes="ccc"
       inkscape:connector-curvature="0"
       id="path4351"
       d="m 368.80288,766.62315 c 12.3683,2.88867 19.36096,6.07735 24.50484,16.28765 -7.3928,-10.75617 -15.26885,-12.72447 -24.50484,-16.28765 z"
       style="fill:#000000;stroke:none" />
    <path
       sodipodi:nodetypes="ccc"
       inkscape:connector-curvature="0"
       id="path4353"
       d="m 259.55835,721.42863 c 3.63388,1.1435 7.4732,1.15714 11.88554,-1.98092 -4.2328,3.51433 -6.93148,4.2028 -11.88554,1.98092 z"
       style="fill:#000000;stroke:none" />
    <path
       sodipodi:nodetypes="cccc"
       inkscape:connector-curvature="0"
       id="path4355"
       d="m 253.68988,696.97511 c 1.02916,-3.38775 2.18865,-5.90697 3.6315,-6.53674 l -1.4007,-0.51879 c -1.06696,1.22005 -1.71353,3.91155 -2.2308,7.05553 z"
       style="fill:#000000;stroke:none" />
    <path
       sodipodi:nodetypes="ccscccc"
       inkscape:connector-curvature="0"
       id="path4357"
       d="m 301.59805,687.97297 c 1.78432,7.23113 2.85732,14.69931 0,23.47765 9.55868,-2.02644 24.91508,7.42867 42.25979,12.0323 25.23679,6.69837 33.6442,-17.32326 48.12925,-22.59726 -8.0053,-10.32588 -5.31483,-13.52121 -7.04332,-19.66253 L 341.36335,662.5877 z"
       style="fill:#bbbbbb;fill-opacity:1;stroke:none" />
    <path
       sodipodi:nodetypes="ssssccsssssssscssssss"
       inkscape:connector-curvature="0"
       id="path4359"
       d="m 308.78808,686.65235 c -2.55994,2.23113 -4.25954,6.33783 -7.63023,6.7498 -2.50825,0.30658 -5.16754,-2.64203 -5.57598,-5.13574 -0.65778,-4.01586 0.9942,-8.23284 2.78797,-11.88555 1.02427,-2.0858 3.52168,-3.03255 5.2825,-4.54882 -0.44019,0.73371 -0.88043,1.46738 -1.32062,2.20105 2.69014,-2.54342 5.26549,-5.21405 8.07047,-7.63023 2.14205,-1.84513 4.37413,-3.60307 6.7498,-5.13574 2.18799,-1.41163 4.64431,-2.36174 6.89656,-3.6684 4.15757,-2.41203 7.63532,-6.4334 12.32578,-7.48351 5.59179,-1.25189 11.76935,-1.0403 17.16808,0.88043 5.23497,1.86242 9.29664,6.18059 13.35293,9.978 2.89993,2.71484 4.45556,6.65633 7.33675,9.39105 2.95285,2.80268 6.83724,4.45298 9.97801,7.04332 1.62959,1.34396 2.8369,3.13034 4.25535,4.69551 -3.08144,0.29348 -6.30147,1.84007 -9.24433,0.88043 -6.40937,-2.09 -11.55583,-7.03535 -17.755,-9.68453 -5.30748,-2.26815 -10.81156,-4.82801 -16.58113,-4.98902 -5.17153,-0.14434 -10.16696,2.17841 -14.96699,4.10859 -4.50914,1.8132 -8.7352,4.32811 -12.76601,7.04332 -3.04924,2.05401 -5.59233,4.77443 -8.36391,7.19004 z"
       style="fill:#000000;stroke:none" />
    <path
       sodipodi:nodetypes="ccc"
       inkscape:connector-curvature="0"
       id="path4361"
       d="m 324.04855,701.3259 c 10.73908,-22.28053 26.78301,-23.57223 46.51515,-10.27148 -10.57417,-14.22839 -37.75189,-15.96382 -46.51515,10.27148 z"
       style="fill:#000000;stroke:none" />
    <path
       sodipodi:nodetypes="ccc"
       inkscape:connector-curvature="0"
       id="path4363"
       d="m 316.71179,692.81524 c -3.76577,8.69624 -4.56748,7.41827 -2.20101,15.7007 4.99855,-6.22838 4.22039,-8.5232 2.20101,-15.7007 z"
       style="fill:#000000;stroke:none" />
    <path
       sodipodi:nodetypes="csccccccc"
       inkscape:connector-curvature="0"
       id="path4365"
       d="m 335.34714,706.98774 c 10.21753,1.87591 17.75701,-0.52039 24.59288,-4.03903 3.87531,-1.99472 6.90191,-4.76519 8.60956,-6.64803 l -15.14863,-2.43829 -12.29525,1.66012 -7.05552,2.54207 -3.89092,3.00897 -0.20753,3.6315 z"
       style="fill:#ffffff;fill-opacity:1;stroke:none" />
    <path
       sodipodi:nodetypes="sccscs"
       inkscape:connector-curvature="0"
       id="path4367"
       d="m 331.38534,699.56504 c -2.03478,1.42987 -3.88915,3.19118 -4.25531,5.57597 2.94467,0.90932 5.05172,1.73321 8.36391,1.90754 -3.48154,-1.54277 -7.48976,-4.3229 -3.08145,-7.19003 13.1339,-8.5421 26.79049,-4.89958 38.88488,-3.37493 -18.05661,-4.24717 -30.49345,-3.53704 -39.91203,3.08145 z"
       style="fill:#000000;stroke:none" />
    <path
       sodipodi:nodetypes="cccccccccscccccccccc"
       inkscape:connector-curvature="0"
       id="path4369"
       d="m 413.41045,678.14168 c -11.28237,4.39336 -22.38054,9.20403 -33.45566,14.0866 -0.1339,1.66698 -0.11065,1.8584 1.32062,2.49449 11.74134,-3.2918 22.35194,-4.26266 34.33609,-4.98898 -11.16802,1.0721 -21.25889,2.13191 -33.30894,5.57594 2.38438,7.35594 18.14129,6.74717 24.06461,7.92371 -9.44911,-1.63822 -15.33894,-2.37654 -24.04558,-3.26761 -4.66482,-0.0288 -10.16401,6.33636 -14.10567,9.57725 16.02121,-1.96259 20.80399,1.69669 34.04265,9.83125 -16.31419,-10.50962 -24.35224,-11.52871 -35.80347,-7.92371 -3.12064,0.98241 -5.57593,3.42382 -8.3639,5.13574 4.94473,-2.14209 9.60499,-3.04146 14.52679,-3.52164 -4.65976,1.04437 -9.17403,2.65876 -13.35292,4.1086 7.8488,-1.57852 15.48019,-2.08844 22.89073,-2.49449 -6.56183,0.70298 -12.65574,1.92352 -18.63538,3.22816 5.45313,0.27815 10.94726,0.75331 15.99413,1.17386 -10.27222,0.93233 -20.30676,-0.17112 -29.7873,-1.17386 8.20593,-0.39299 13.03801,-4.99835 19.22239,-9.24434 6.17747,-5.43558 8.91581,-9.19383 9.46443,-16.87456 11.4753,-5.08163 23.27292,-9.16352 34.99638,-13.64641 z"
       style="fill:#000000;stroke:none" />
    <path
       sodipodi:nodetypes="cscsssssc"
       inkscape:connector-curvature="0"
       id="path4371"
       d="m 492.02117,632.17849 c 3.84577,-1.09531 24.49576,-5.35346 26.14693,17.95007 0.13299,1.87697 -0.12339,3.92691 -1.0931,5.57897 -2.97367,8.10967 -1.61718,15.42909 -1.70835,23.78444 -0.0407,3.72087 -2.40316,7.44588 -5.18788,10.58325 -4.58087,5.16105 -4.29976,1.43517 -2.17891,-0.9338 2.87215,-3.20812 4.64177,-4.64436 5.18788,-7.57432 2.39108,-12.82842 0.92657,-15.76697 0.9338,-23.65674 0.0206,-22.24549 -13.6828,-25.65751 -22.10037,-25.73187 z"
       style="fill:#000000;stroke:none" />
    <path
       sodipodi:nodetypes="csscsssssssssssc"
       inkscape:connector-curvature="0"
       id="path4373"
       d="m 485.79571,638.50769 c -2.69158,2.04148 -2.88801,7.42279 -2.28265,12.96972 0.19236,1.7625 1.87598,6.35805 2.49018,11.62083 0.87562,7.50298 -3.45139,7.50857 -8.19685,6.01793 4.05128,3.42567 4.51242,10.93272 4.98035,18.98766 0.16011,2.75629 -0.77895,5.58888 -2.49018,8.19685 -1.51861,2.31445 -2.11235,5.94193 3.83903,2.6977 1.60507,-0.87496 4.75249,-2.83624 4.77283,-3.52776 0.15839,-5.38057 1.16721,-7.22603 3.00901,-8.81938 2.26618,-1.96054 5.58305,-0.64135 8.81938,-1.66012 8.94059,-2.81447 3.67904,-8.7354 3.52777,-13.17724 -0.34159,-10.02822 -5.10115,-11.9116 -9.85697,-14.00727 -4.65294,-2.05035 -7.6288,-0.97599 -8.50816,-1.45259 -0.85763,-0.46484 -1.62577,-4.63227 -0.31126,-5.08414 4.12498,-1.41791 4.10986,-3.68261 3.52776,-6.74425 -0.94469,-4.96873 -2.17386,-4.56707 -3.32024,-6.01794 z"
       style="fill:#000000;stroke:none" />
    <path
       sodipodi:nodetypes="scccccccs"
       inkscape:connector-curvature="0"
       id="path4375"
       d="m 264.10898,700.71668 c -0.30724,0.007 -0.61386,0.0201 -0.92443,0.0386 l -0.10271,-0.0127 -3.23552,0.51358 c -1.23735,0.40728 -1.4065,1.426 -1.6948,1.68197 l 0.57775,5.81621 c 2.28381,4.22757 13.48691,1.85901 21.89108,0.64196 0.28045,-2.31071 -0.17486,-5.66673 -1.20098,-5.83601 -5.21545,-1.5272 -9.96831,-2.96821 -15.31039,-2.84339 z"
       style="fill:#ffffff;fill-opacity:1;stroke:none" />
    <path
       sodipodi:nodetypes="cccc"
       inkscape:connector-curvature="0"
       id="path4377"
       d="m 259.70782,701.28107 c -4.82267,1.18554 -7.47945,3.58816 -11.25771,7.10738 3.31539,-2.3647 6.72441,-4.22368 9.80511,-5.44726 z"
       style="fill:#000000;stroke:none" />
    <path
       sodipodi:nodetypes="ccc"
       inkscape:connector-curvature="0"
       id="path4379"
       d="m 263.02805,700.76228 c 5.81075,-0.38259 10.99715,1.29109 16.49748,2.85334 -5.34692,10.84249 -16.96799,7.2335 -16.49748,-2.85334 z"
       style="fill:#666666;fill-opacity:1;stroke:none" />
    <path
       id="path4381"
       d="m 270.14344,701.21743 c -0.34903,0.26529 -0.57775,0.6833 -0.57775,1.15554 0,0.80225 0.64858,1.45083 1.45082,1.45083 0.80229,0 1.45087,-0.64858 1.45087,-1.45083 0,-0.26323 -0.0702,-0.50609 -0.19257,-0.719 -0.70931,-0.16155 -1.41635,-0.30929 -2.13137,-0.43654 z"
       style="color:#000000;fill:#000000;stroke:none;stroke-width:0.30000001;marker:none;visibility:visible;display:inline;overflow:visible;enable-background:accumulate"
       inkscape:connector-curvature="0" />
    <path
       id="path4383"
       d="m 351.00573,694.39972 c -2.78695,0.0554 -5.58909,0.37067 -8.39698,1.05282 0,0.0516 0,0.10231 0,0.15407 0,4.70032 3.8122,8.51252 8.51251,8.51252 4.70031,0 8.51251,-3.8122 8.51251,-8.51252 0,-0.24622 -0.0181,-0.49089 -0.0386,-0.73182 -2.82289,-0.31919 -5.70084,-0.53247 -8.58951,-0.47507 z"
       style="color:#000000;fill:#666666;fill-opacity:1;stroke:none;stroke-width:0.30000001;marker:none;visibility:visible;display:inline;overflow:visible;enable-background:accumulate"
       inkscape:connector-curvature="0" />
    <path
       id="path4385"
       d="m 351.00573,694.39972 c -0.46296,0.009 -0.92271,0.0407 -1.38666,0.0642 -0.23981,0.31752 -0.39804,0.71412 -0.39804,1.14268 0,1.047 0.85328,1.88741 1.90023,1.88741 1.04695,0 1.90022,-0.84041 1.90022,-1.88741 0,-0.45802 -0.17893,-0.87919 -0.44939,-1.20689 -0.51814,-0.006 -1.04671,-0.0103 -1.56636,0 z"
       style="color:#000000;fill:#000000;stroke:none;stroke-width:0.06682342;marker:none;visibility:visible;display:inline;overflow:visible;enable-background:accumulate"
       inkscape:connector-curvature="0" />
    <path
       sodipodi:nodetypes="ccccccccccccccccccsssssccccssssssscsssc"
       inkscape:connector-curvature="0"
       id="path4387"
       d="m 232.52331,575.83809 c 3.71984,-11.53069 6.39421,-12.2577 9.33818,-15.77116 1.39458,-4.27524 2.47887,-6.99887 3.32027,-8.50816 -0.7098,-11.35743 4.31419,-14.18685 9.33818,-17.01623 1.24227,-1.83515 2.41466,-3.72272 5.81041,-3.94281 4.33748,-4.31062 8.08694,-8.85644 13.69604,-12.65841 1.33328,-3.61014 4.57598,-5.07214 8.09306,-6.22547 1.48863,-6.15003 5.53415,-8.78429 9.13069,-12.03587 6.59351,-4.88997 9.5835,-9.69263 22.41164,-14.73358 21.17363,-17.49493 41.00897,-20.09838 60.59447,-19.9215 16.99421,-8.07408 31.10316,-4.60713 44.82331,0.41505 17.84268,-8.28831 28.35106,8.36004 41.08802,17.43128 16.54707,5.46513 33.94265,7.05129 45.23832,36.52268 11.88727,15.87831 17.85874,35.52125 21.16657,56.85919 3.7357,17.77525 3.43503,33.96035 3.32024,50.21871 0.70873,10.67429 2.2453,20.72765 0,33.61746 1.89303,12.19656 -1.26829,21.54529 -6.22547,29.8822 -3.99922,14.82981 -8.96121,17.14389 -13.69599,22.41164 1.80679,-4.90854 3.9751,-9.69875 5.42034,-14.72561 1.78691,-6.21531 3.48787,-12.5075 4.25535,-18.92886 0.7082,-5.92529 -0.59698,-11.98082 0.14672,-17.90176 0.54007,-4.2998 3.96188,-8.14886 3.6684,-12.47249 -2.74672,-40.46492 -37.26338,-30.8285 -48.71616,-9.24434 -1.63222,3.0761 0.38801,5.22017 2.93468,9.97801 -2.06383,0.0635 -3.71992,-0.68441 -4.84226,-2.49449 -0.3796,1.05344 0.19503,4.25395 2.93472,12.32577 -2.94972,-1.46952 -5.48082,-2.87922 -5.72269,-3.96187 -0.29348,3.61946 0.062,7.3515 -0.88043,10.85844 -1.18849,4.42228 -1.9937,9.59167 -5.42922,12.61925 -4.94428,4.35716 -11.7156,9.89427 -18.04842,8.07043 -8.44168,-2.43122 -13.30018,-11.65629 -18.63543,-18.63539 -3.82605,-5.00484 -4.02535,-12.45092 -8.51066,-16.87456 -10.08545,-9.94683 -25.65509,-13.9327 -34.18933,-25.23852 -7.43651,-9.85158 -8.70985,-23.18023 -11.44539,-35.21651 -2.18105,-9.59665 2.41322,-26.62023 1.33718,-36.40263 l -20.4128,22.02255 c -17.95961,19.37588 -34.86174,-1.43965 -48.42269,5.86941 -30.17498,16.26362 -53.19453,32.60666 -72.19385,20.24949 -16.3868,-10.65793 -3.03091,-18.93884 -0.696,-26.44134 z"
       style="fill:#000000;stroke:none" />
    <path
       sodipodi:nodetypes="cccsccccsc"
       inkscape:connector-curvature="0"
       id="path4389"
       d="m 377.78857,778.57451 c -0.0382,0.009 -0.0771,0.0168 -0.11553,0.0255 l -0.10271,0.19261 c 2.55936,2.14431 5.42527,4.06853 7.23773,6.87273 2.00701,3.10515 2.31248,6.73965 3.76557,10.13939 1.79233,4.19335 4.01418,8.19003 6.15007,12.22307 0.0259,0.009 0.0509,0.0168 0.077,0.0255 l -4.77624,-12.45417 c -1.55095,-4.04594 -1.20559,-8.93693 -3.73623,-12.45418 -1.87977,-2.61253 -5.66362,-3.04903 -8.4997,-4.57081 z"
       style="fill:#000000;stroke:none" />
    <path
       inkscape:connector-curvature="0"
       style="fill:#000000;fill-opacity:1;fill-rule:nonzero;stroke:none"
       d="m 374.55244,779.63194 c -2.73267,0.6932 -5.43037,1.28361 -7.9726,2.47789 -11.64926,5.4724 -21.83906,14.41057 -34.24258,17.84667 -8.73667,2.42029 -20.39131,3.82538 -26.96264,-1.84887 8.49148,5.61562 17.85122,3.10207 26.34636,0.60347 12.02034,-3.53536 21.92665,-12.20096 33.40803,-17.21755 1.6056,-0.70163 6.4804,-1.4058 9.42343,-1.86161 z"
       id="path4325" />
  </g>
</svg>
