<?xml version="1.0" standalone="no"?>
<!DOCTYPE svg PUBLIC "-//W3C//DTD SVG 20010904//EN"
 "http://www.w3.org/TR/2001/REC-SVG-20010904/DTD/svg10.dtd">
<svg version="1.0" xmlns="http://www.w3.org/2000/svg"
 width="800.000000pt" height="800.000000pt" viewBox="0 0 800.000000 800.000000"
 preserveAspectRatio="xMidYMid meet">
<metadata>
Created by potrace 1.14, written by Peter Selinger 2001-2017
</metadata>
<g transform="translate(0.000000,800.000000) scale(0.100000,-0.100000)"
fill="#000000" stroke="none">
<path d="M3420 7997 c-3 -3 -17 -8 -30 -10 -14 -3 -45 -12 -70 -20 -25 -9 -78
-17 -119 -18 -116 -4 -239 -30 -303 -65 -16 -8 -28 -12 -28 -7 0 4 -4 3 -8 -2
-4 -6 -20 -17 -37 -25 -16 -8 -55 -33 -85 -55 -30 -22 -58 -39 -62 -37 -5 1
-8 -2 -8 -8 0 -5 -6 -10 -13 -10 -16 0 -128 -71 -160 -101 -12 -11 -39 -35
-60 -52 -21 -18 -47 -48 -57 -68 -11 -21 -32 -41 -49 -49 -17 -7 -31 -16 -31
-21 0 -5 -16 -23 -37 -41 -20 -18 -54 -51 -76 -73 -22 -21 -47 -40 -56 -42 -9
-1 -23 -10 -31 -20 -8 -10 -32 -30 -52 -45 -36 -27 -51 -61 -53 -118 0 -14 -4
-31 -8 -37 -5 -7 -6 -13 -2 -13 10 0 -33 -74 -59 -102 -14 -15 -26 -34 -26
-43 0 -8 -5 -15 -11 -15 -5 0 -8 -4 -5 -8 2 -4 -9 -32 -25 -62 -16 -30 -32
-63 -35 -72 -4 -10 -10 -18 -13 -18 -4 0 -8 -6 -8 -12 0 -7 -2 -17 -3 -23 -8
-31 5 -59 42 -95 46 -46 45 -42 33 -217 -3 -45 -1 -84 4 -87 5 -4 5 -20 -2
-41 -7 -25 -7 -42 1 -59 8 -18 8 -32 -1 -55 -9 -25 -8 -33 5 -48 10 -11 14
-24 9 -31 -4 -8 -7 -24 -5 -38 3 -26 -7 -30 -38 -13 -21 11 -21 11 1 -20 22
-31 17 -42 -8 -18 -9 8 -8 3 2 -13 18 -29 35 -104 18 -80 -7 10 -11 11 -11 3
0 -7 10 -17 21 -24 16 -8 18 -13 9 -19 -8 -5 7 -17 46 -35 53 -24 62 -33 79
-74 10 -25 21 -48 25 -51 3 -3 15 -17 27 -32 23 -31 24 -88 1 -115 -8 -10 1
-7 22 6 19 11 37 21 40 21 9 0 11 -51 3 -64 -11 -16 -12 -69 -2 -82 4 -5 7
-86 5 -180 -3 -170 2 -210 31 -274 17 -36 80 -104 123 -131 14 -9 36 -41 50
-70 14 -30 27 -56 30 -59 3 -3 29 -52 59 -110 75 -146 165 -276 239 -348 13
-12 22 -27 20 -32 -4 -13 -324 -165 -340 -162 -3 1 -12 -5 -18 -13 -7 -8 -19
-15 -26 -15 -7 0 -29 -9 -48 -19 -19 -11 -37 -17 -40 -14 -3 4 -6 1 -6 -5 0
-7 -6 -12 -13 -12 -6 0 -44 -15 -82 -34 -39 -18 -92 -44 -120 -56 -27 -13 -78
-36 -112 -51 -35 -16 -93 -43 -130 -60 -38 -17 -88 -41 -113 -53 -25 -13 -48
-23 -53 -24 -4 -1 -51 -22 -104 -47 -54 -25 -108 -48 -120 -51 -13 -4 -23 -10
-23 -15 0 -5 -4 -9 -10 -9 -9 0 -42 -15 -220 -97 -105 -50 -122 -55 -139 -44
-23 14 -81 -11 -123 -54 -42 -42 -96 -132 -121 -200 -8 -22 -18 -49 -23 -60
-9 -25 -14 -44 -18 -71 -2 -11 -6 -25 -9 -31 -3 -5 -9 -23 -12 -39 -3 -16 -12
-54 -20 -84 -9 -30 -18 -64 -20 -75 -2 -11 -8 -37 -13 -57 -6 -21 -8 -38 -6
-38 3 0 0 -8 -5 -18 -5 -9 -11 -30 -14 -47 -6 -31 -7 -34 -31 -150 -9 -38 -17
-83 -20 -100 -2 -16 -5 -30 -6 -30 -2 0 -7 -23 -15 -69 -4 -21 -9 -48 -11 -60
-12 -61 -29 -163 -38 -231 -7 -54 -14 -90 -16 -90 -2 0 -10 -70 -15 -120 -2
-22 -4 -40 -5 -40 -2 0 -5 -23 -14 -100 -3 -33 -11 -94 -16 -135 -5 -41 -12
-100 -14 -130 -3 -30 -8 -80 -10 -110 -17 -171 -30 -355 -41 -585 -3 -65 -8
-121 -10 -123 -2 -3 0 -12 5 -22 5 -10 6 -20 2 -24 -7 -8 -8 -21 -16 -329 l-6
-217 3680 0 c2937 0 3680 3 3681 13 1 6 3 35 4 62 4 56 14 222 20 305 20 298
27 1227 11 1550 -14 276 -16 305 -20 330 -2 14 -7 53 -10 87 -7 66 -15 132
-21 172 -3 13 -7 45 -11 70 -3 25 -8 57 -10 71 -3 14 -7 39 -10 55 -10 55 -12
70 -28 140 -9 39 -23 95 -31 125 -9 30 -18 66 -21 79 -3 13 -9 31 -13 40 -5 9
-9 18 -8 21 1 10 -26 86 -50 140 -56 125 -68 148 -119 225 -55 84 -86 109
-176 140 -26 8 -85 33 -132 55 -87 40 -317 137 -441 185 -38 14 -79 30 -90 35
-11 5 -51 19 -90 31 -38 12 -76 27 -82 32 -7 5 -13 7 -13 4 0 -3 -15 -1 -32 5
-18 5 -49 14 -68 18 -62 15 -74 18 -120 30 -25 7 -52 13 -60 15 -16 3 -190 69
-225 85 -25 12 -241 99 -320 131 -33 12 -64 27 -69 31 -6 4 -18 8 -28 8 -10 0
-18 5 -18 12 0 6 -3 9 -6 6 -12 -12 -187 72 -260 123 -99 72 -147 130 -257
310 -26 42 -74 104 -107 137 -34 35 -60 70 -60 82 0 18 -6 22 -27 19 -12 -2
-28 36 -30 76 -8 125 -9 364 -2 388 4 16 24 45 44 65 39 40 84 111 90 142 2
10 8 27 13 37 6 10 10 20 10 23 -1 3 9 24 21 48 12 23 19 42 15 42 -4 0 0 7 7
16 20 24 25 238 15 604 -6 194 -11 275 -19 325 -3 17 -9 50 -12 75 -4 25 -9
54 -12 65 -2 11 -8 45 -14 75 -26 134 -111 343 -174 426 -14 18 -25 36 -25 40
0 15 -44 99 -62 118 -10 11 -18 23 -18 28 0 4 -21 28 -47 53 -51 48 -135 93
-218 118 -27 8 -66 21 -85 29 -33 15 -45 23 -115 87 -104 93 -176 121 -266
102 -33 -6 -64 -9 -70 -5 -40 24 -273 57 -289 41z"/>
</g>
</svg>
